<svg xmlns="http://www.w3.org/2000/svg" viewBox="0 0 360 360"><defs><style>.a,.c{fill:none;}.a{stroke:#c1272d;stroke-miterlimit:10;stroke-width:16px;}.b{fill:#c1272d;}.c{stroke:#fff;stroke-linecap:round;stroke-linejoin:round;stroke-width:4px;}</style></defs><title>botão stop menor</title><circle class="a" cx="180" cy="180" r="122.5"/><rect class="b" x="133.9" y="132.52" width="93.92" height="93.92"/><path class="b" d="M227.82,208.44H133.9l18,18V132.52l-18,18h93.92l-18-18v93.92c0,9.41,8.28,18.43,18,18s18-7.91,18-18V132.52a18.26,18.26,0,0,0-18-18H133.9a18.26,18.26,0,0,0-18,18v93.92a18.26,18.26,0,0,0,18,18h93.92c9.42,0,18.44-8.28,18-18S237.91,208.44,227.82,208.44Z"/><polygon class="c" points="143.38 168.52 143.38 189.48 158.44 189.48 175.46 203.23 175.46 154.77 159.42 168.55 143.38 168.52"/><line class="c" x1="190.86" y1="166.84" x2="218.38" y2="194.37"/><line class="c" x1="218.38" y1="166.84" x2="190.86" y2="194.37"/></svg>