<svg xmlns="http://www.w3.org/2000/svg" viewBox="0 0 810 810"><defs><style>.a,.c{fill:none;}.a{stroke:#c1272d;stroke-miterlimit:10;stroke-width:16px;}.b{fill:#c1272d;}.c{stroke:#fff;stroke-linecap:round;stroke-linejoin:round;stroke-width:4px;}</style></defs><title>botão stop principal</title><circle class="a" cx="405" cy="405" r="300"/><rect class="b" x="292.11" y="288.72" width="230" height="230"/><path class="b" d="M522.11,500.72h-230l18,18v-230l-18,18h230l-18-18v230c0,9.41,8.28,18.43,18,18s18-7.91,18-18v-230a18.26,18.26,0,0,0-18-18h-230a18.26,18.26,0,0,0-18,18v230a18.26,18.26,0,0,0,18,18h230c9.42,0,18.44-8.28,18-18S532.2,500.72,522.11,500.72Z"/><polygon class="c" points="366.24 393.58 366.24 416.42 382.65 416.42 401.21 431.41 401.21 378.59 383.72 393.61 366.24 393.58"/><line class="c" x1="417.99" y1="391.75" x2="447.99" y2="421.75"/><line class="c" x1="447.99" y1="391.75" x2="417.99" y2="421.75"/></svg>