<svg xmlns="http://www.w3.org/2000/svg" viewBox="0 0 360 360"><defs><style>.a,.b{fill:none;}.a{stroke:#fff;stroke-linecap:round;stroke-linejoin:round;stroke-width:4px;}.b{stroke:#0071bc;stroke-miterlimit:10;stroke-width:16px;}.c{fill:#0071bc;}</style></defs><title>botão play menor</title><polygon class="a" points="162.49 175.34 162.49 184.66 169.19 184.66 176.77 190.78 176.77 169.22 169.63 175.35 162.49 175.34"/><path class="a" d="M183.55,173.73s5,6.27,0,12.54"/><path class="a" d="M189.5,170.82s6.68,9.18,0,18.36"/><path class="a" d="M194.87,166.16s9.83,13.84,0,27.68"/><circle class="b" cx="180" cy="180" r="122.5"/><polygon class="c" points="239.21 180 145.29 125.78 145.29 234.22 239.21 180"/><path class="c" d="M248.29,164.46,166.1,117l-11.72-6.77c-11.81-6.81-27.09,1.85-27.09,15.55V234.22c0,13.7,15.28,22.36,27.09,15.55l82.19-47.46,11.72-6.77c8.16-4.71,11.71-16.48,6.46-24.62s-15.9-11.5-24.63-6.46l-82.19,47.45-11.72,6.77,27.08,15.54V125.78l-27.08,15.54,82.19,47.46,11.72,6.76c8.16,4.71,20.07,2.17,24.63-6.46S257,169.49,248.29,164.46Z"/><polygon class="a" points="144.86 170.74 144.86 189.01 158 189.01 172.84 201 172.84 158.75 158.85 170.76 144.86 170.74"/><path class="a" d="M186.13,167.6s9.71,12.27,0,24.55"/><path class="a" d="M197.79,161.89s13.08,18,0,36"/><path class="a" d="M208.3,152.75s19.27,27.12,0,54.24"/></svg>