<svg xmlns="http://www.w3.org/2000/svg" viewBox="0 0 810 810"><defs><style>.a,.b{fill:none;}.a{stroke:#fff;stroke-linecap:round;stroke-linejoin:round;stroke-width:4px;}.b{stroke:#0071bc;stroke-miterlimit:10;stroke-width:16px;}.c{fill:#0071bc;}</style></defs><title>botão play principal</title><polygon class="a" points="362.11 393.58 362.11 416.42 378.53 416.42 397.08 431.41 397.08 378.59 379.6 393.61 362.11 393.58"/><path class="a" d="M413.7,389.66s12.13,15.34,0,30.68"/><path class="a" d="M428.28,382.52s16.34,22.48,0,45"/><path class="a" d="M441.41,371.1s24.08,33.9,0,67.8"/><circle class="b" cx="405" cy="405" r="300"/><polygon class="c" points="550 405 320 272.21 320 537.79 550 405"/><path class="c" d="M559.08,389.46l-78-45L357.42,273l-28.34-16.35c-11.8-6.82-27.08,1.84-27.08,15.54V537.79c0,13.7,15.28,22.36,27.08,15.54l78-45L530.75,436.9l28.33-16.36c8.16-4.71,11.71-16.48,6.46-24.62s-15.9-11.5-24.62-6.46l-78,45L339.25,505.89l-28.33,16.36L338,537.79V272.21l-27.08,15.54,78,45,123.68,71.4,28.34,16.36c8.15,4.71,20.07,2.17,24.62-6.46S567.8,394.49,559.08,389.46Z"/><polygon class="a" points="366.61 394.41 366.61 414.96 381.39 414.96 398.09 428.45 398.09 380.92 382.35 394.43 366.61 394.41"/><path class="a" d="M413,390.88s10.92,13.81,0,27.62"/><path class="a" d="M426.16,384.45s14.71,20.24,0,40.47"/><path class="a" d="M438,374.18s21.68,30.51,0,61"/></svg>